# xmcd
#
# Track frame offsets:
#	150
#	20067
#	38417
#	56287
#	75141
#	95205
#	115089
#	135801
#	155469
#	171616
#	186074
#	203213
#
# Disc length: 2948 seconds
#
# Revision: 3
# Processed by: cddbd v1.5.2PL0 Copyright (c) Steve Scherf et al.
# Submitted via: EasyCDDAExtractor 10.5.1.1
#
DISCID=8f0b820c
DTITLE=Hellbillies
DYEAR=2007
DGENRE=Country
TTITLE0=Mot Straumen
TTITLE1=Spissrotgang
TTITLE2=Gamle Spor
TTITLE3=Ingen Der
TTITLE4=Livsfarleg Leik
TTITLE5=6000 Hål
TTITLE6=Fint Å Væra To
TTITLE7=Mørkemann
TTITLE8=Drukne Ei Gudinne
TTITLE9=Svelg Ein Kamel
TTITLE10=Ukjend By
TTITLE11=Hallo Telenor
EXTD=
EXTT0=
EXTT1=
EXTT2=
EXTT3=
EXTT4=
EXTT5=
EXTT6=
EXTT7=
EXTT8=
EXTT9=
EXTT10=
EXTT11=
PLAYORDER=
